<svg xmlns="http://www.w3.org/2000/svg" width="210.371" height="30" viewBox="0 0 210.371 30">
  <g id="Group_53583" data-name="Group 53583" transform="translate(-537.515 -5320)">
    <g id="Group_45732" data-name="Group 45732" transform="translate(656.926 5323.044)">
      <path id="Path_84135" data-name="Path 84135" d="M-32.923-4.978V-6.891h-4.621V-7.93q.593-1.1,1.508-2.518t2.527-3.729h1.7V-7.9h1.3v1.007h-1.3v1.912Zm-3.487-2.945V-7.9h3.487V-13.22h-.019Q-35.358-9.772-36.409-7.923Zm8.44,2.8a.7.7,0,0,1-.516.21A.7.7,0,0,1-29-5.125a.7.7,0,0,1-.21-.516A.7.7,0,0,1-29-6.158a.7.7,0,0,1,.516-.21.7.7,0,0,1,.516.21.7.7,0,0,1,.21.516A.7.7,0,0,1-27.97-5.125Zm4.94.3a3.17,3.17,0,0,1-2.008-.65,2.8,2.8,0,0,1-1.045-1.734h1.166a1.87,1.87,0,0,0,.7,1,1.97,1.97,0,0,0,1.2.379,2,2,0,0,0,1.782-1,5.432,5.432,0,0,0,.66-2.833h-.019a2.319,2.319,0,0,1-.991,1.093,3.05,3.05,0,0,1-1.578.411,2.967,2.967,0,0,1-2.183-.867,2.943,2.943,0,0,1-.87-2.174,3,3,0,0,1,.921-2.253,3.227,3.227,0,0,1,2.336-.889,3.17,3.17,0,0,1,1.829.539,3.405,3.405,0,0,1,1.211,1.527,6.373,6.373,0,0,1,.453,2.537A6.069,6.069,0,0,1-20.4-6.116,3.059,3.059,0,0,1-23.03-4.825Zm.064-4.335a2.106,2.106,0,0,0,1.517-.58,1.936,1.936,0,0,0,.606-1.46,2.032,2.032,0,0,0-.609-1.495,2.032,2.032,0,0,0-1.495-.609,2.054,2.054,0,0,0-1.5.6,1.983,1.983,0,0,0-.612,1.469,2,2,0,0,0,.593,1.485A2.042,2.042,0,0,0-22.966-9.16Zm6,4.035a.7.7,0,0,1-.516.21A.7.7,0,0,1-18-5.125a.7.7,0,0,1-.21-.516A.7.7,0,0,1-18-6.158a.7.7,0,0,1,.516-.21.7.7,0,0,1,.516.21.7.7,0,0,1,.21.516A.7.7,0,0,1-16.968-5.125Zm4.131,2.1h-.95l3.257-11.155h.95ZM-3-4.825a3.3,3.3,0,0,1-2.2-.746A2.615,2.615,0,0,1-6.151-7.49h1.128a1.714,1.714,0,0,0,.644,1.2,2.138,2.138,0,0,0,1.4.462,2.072,2.072,0,0,0,1.527-.586,2.047,2.047,0,0,0,.59-1.517,2.079,2.079,0,0,0-.59-1.527,2.03,2.03,0,0,0-1.508-.6,2.473,2.473,0,0,0-1.166.274,1.951,1.951,0,0,0-.8.759H-6.01l.5-5.15H-.242v1.02H-4.563l-.28,3h.025a2.08,2.08,0,0,1,.857-.65,2.994,2.994,0,0,1,1.2-.236,2.934,2.934,0,0,1,2.183.87A3.016,3.016,0,0,1,.281-7.968,3,3,0,0,1-.637-5.705,3.269,3.269,0,0,1-3-4.825Zm5.9-.3a.7.7,0,0,1-.516.21.7.7,0,0,1-.516-.21.7.7,0,0,1-.21-.516.7.7,0,0,1,.21-.516.7.7,0,0,1,.516-.21.7.7,0,0,1,.516.21.7.7,0,0,1,.21.516A.7.7,0,0,1,2.907-5.125Zm5.106.3A2.877,2.877,0,0,1,5.518-6.1a5.965,5.965,0,0,1-.9-3.477,5.926,5.926,0,0,1,.9-3.464A2.877,2.877,0,0,1,8.013-14.33,2.865,2.865,0,0,1,10.5-13.052a5.94,5.94,0,0,1,.9,3.464,6,6,0,0,1-.892,3.48A2.861,2.861,0,0,1,8.013-4.825ZM6.362-6.833A1.824,1.824,0,0,0,8.013-5.826a1.811,1.811,0,0,0,1.645-1,5.509,5.509,0,0,0,.58-2.751,5.436,5.436,0,0,0-.586-2.731,1.814,1.814,0,0,0-1.638-1.01,1.827,1.827,0,0,0-1.645,1.014,5.376,5.376,0,0,0-.593,2.722A5.478,5.478,0,0,0,6.362-6.833Z" transform="translate(37.544 14.336)" fill="#fff"/>
      <path id="Path_84134" data-name="Path 84134" d="M-66.788-3.888a1.983,1.983,0,0,1-1.017-.26,1.881,1.881,0,0,1-.706-.729h-.02v.9h-.847v-7.358h.887V-8.4h.02a1.827,1.827,0,0,1,.7-.719,1.953,1.953,0,0,1,1-.26,2,2,0,0,1,1.622.75,3.039,3.039,0,0,1,.617,1.994,3.037,3.037,0,0,1-.617,2A2.017,2.017,0,0,1-66.788-3.888ZM-66.962-8.6a1.346,1.346,0,0,0-1.107.543,2.226,2.226,0,0,0-.428,1.42,2.224,2.224,0,0,0,.428,1.423,1.348,1.348,0,0,0,1.107.541A1.33,1.33,0,0,0-65.85-5.2a2.29,2.29,0,0,0,.408-1.435,2.293,2.293,0,0,0-.408-1.433A1.327,1.327,0,0,0-66.962-8.6Zm5.074,3.952a1.5,1.5,0,0,0,1.053-.39,1.252,1.252,0,0,0,.426-.961v-.433l-1.418.087a1.51,1.51,0,0,0-.829.26.719.719,0,0,0-.293.6.735.735,0,0,0,.291.607A1.207,1.207,0,0,0-61.888-4.643Zm-.2.755a1.836,1.836,0,0,1-1.277-.439,1.477,1.477,0,0,1-.487-1.152,1.334,1.334,0,0,1,.5-1.091,2.42,2.42,0,0,1,1.42-.459l1.52-.087V-7.56a.97.97,0,0,0-.306-.76,1.236,1.236,0,0,0-.857-.275,1.4,1.4,0,0,0-.821.222.983.983,0,0,0-.4.62h-.857a1.568,1.568,0,0,1,.614-1.165,2.3,2.3,0,0,1,1.486-.456,2.2,2.2,0,0,1,1.481.469,1.573,1.573,0,0,1,.548,1.26V-3.98h-.841v-.913h-.02a1.835,1.835,0,0,1-.7.729A1.925,1.925,0,0,1-62.087-3.888Zm3.6-3.932a1.363,1.363,0,0,1,.553-1.119,2.234,2.234,0,0,1,1.425-.436,2.112,2.112,0,0,1,1.367.439,1.457,1.457,0,0,1,.576,1.112h-.847a.842.842,0,0,0-.344-.607,1.29,1.29,0,0,0-.783-.219,1.29,1.29,0,0,0-.78.217.673.673,0,0,0-.3.569q0,.541.882.765l.821.2a2.5,2.5,0,0,1,1.13.528,1.22,1.22,0,0,1,.329.91,1.356,1.356,0,0,1-.592,1.135,2.475,2.475,0,0,1-1.52.441,2.287,2.287,0,0,1-1.43-.431,1.576,1.576,0,0,1-.635-1.14h.887q.148.847,1.234.847a1.5,1.5,0,0,0,.849-.212.659.659,0,0,0,.314-.574.582.582,0,0,0-.186-.454,1.548,1.548,0,0,0-.63-.286l-.933-.24Q-58.487-6.734-58.487-7.82Zm7.078-.785a1.352,1.352,0,0,0-1.022.426,1.678,1.678,0,0,0-.446,1.094H-50a1.617,1.617,0,0,0-.4-1.1A1.305,1.305,0,0,0-51.408-8.605ZM-50.016-5.5h.872a1.762,1.762,0,0,1-.732,1.158,2.416,2.416,0,0,1-1.476.454,2.272,2.272,0,0,1-1.79-.734A2.885,2.885,0,0,1-53.8-6.611a2.961,2.961,0,0,1,.655-2,2.191,2.191,0,0,1,1.747-.76,2.123,2.123,0,0,1,1.693.719,2.844,2.844,0,0,1,.622,1.928v.337h-3.8v.051a1.747,1.747,0,0,0,.418,1.224,1.456,1.456,0,0,0,1.132.459,1.525,1.525,0,0,0,.852-.229A1.076,1.076,0,0,0-50.016-5.5Zm3.84,1.611a2.036,2.036,0,0,1-1.645-.75,3.014,3.014,0,0,1-.625-1.994,3.025,3.025,0,0,1,.622-1.991A2.01,2.01,0,0,1-46.2-9.375a1.979,1.979,0,0,1,1,.255,1.754,1.754,0,0,1,.683.7h.02v-2.917h.887V-3.98h-.847v-.9h-.015a1.915,1.915,0,0,1-.7.727A1.944,1.944,0,0,1-46.176-3.888Zm.168-4.707a1.339,1.339,0,0,0-1.117.533,2.275,2.275,0,0,0-.413,1.43A2.272,2.272,0,0,0-47.125-5.2a1.341,1.341,0,0,0,1.117.53A1.333,1.333,0,0,0-44.9-5.206a2.259,2.259,0,0,0,.418-1.425A2.25,2.25,0,0,0-44.9-8.057,1.335,1.335,0,0,0-46.008-8.6Zm7.945,4.707a2.293,2.293,0,0,1-1.785-.742,2.866,2.866,0,0,1-.673-2,2.866,2.866,0,0,1,.673-2,2.294,2.294,0,0,1,1.785-.742,2.288,2.288,0,0,1,1.78.742,2.866,2.866,0,0,1,.673,2,2.868,2.868,0,0,1-.673,2A2.284,2.284,0,0,1-38.063-3.888Zm-1.135-1.3a1.383,1.383,0,0,0,1.135.52,1.379,1.379,0,0,0,1.132-.518,2.243,2.243,0,0,0,.418-1.446,2.243,2.243,0,0,0-.418-1.446A1.379,1.379,0,0,0-38.063-8.6a1.383,1.383,0,0,0-1.135.52,2.235,2.235,0,0,0-.421,1.443A2.235,2.235,0,0,0-39.2-5.189Zm4.48,1.209v-5.3h.836v.847h.02a1.664,1.664,0,0,1,.658-.691,2.016,2.016,0,0,1,1.025-.247,1.751,1.751,0,0,1,1.351.523,2.022,2.022,0,0,1,.484,1.43V-3.98h-.887V-7.264a1.426,1.426,0,0,0-.306-.987,1.167,1.167,0,0,0-.913-.339,1.3,1.3,0,0,0-1,.408A1.529,1.529,0,0,0-33.831-7.1V-3.98Zm11.163,0V-5.51h-3.7v-.831q.474-.882,1.206-2.014t2.022-2.983h1.356v5.023h1.04v.806h-1.04v1.53Zm-2.789-2.356v.02h2.789v-4.258h-.015Q-25.5-7.815-26.345-6.336Zm8.185,2.478a2.3,2.3,0,0,1-2-1.022,4.772,4.772,0,0,1-.716-2.782,4.741,4.741,0,0,1,.722-2.772,2.3,2.3,0,0,1,1.991-1.028,2.292,2.292,0,0,1,1.986,1.022,4.752,4.752,0,0,1,.716,2.772,4.8,4.8,0,0,1-.714,2.784A2.289,2.289,0,0,1-18.16-3.858Zm-1.321-1.606a1.459,1.459,0,0,0,1.321.806,1.449,1.449,0,0,0,1.316-.8,4.408,4.408,0,0,0,.464-2.2,4.349,4.349,0,0,0-.469-2.185,1.451,1.451,0,0,0-1.311-.808,1.461,1.461,0,0,0-1.316.811,4.3,4.3,0,0,0-.474,2.177A4.383,4.383,0,0,0-19.481-5.464Zm8.052-1v2.336h-.826V-6.469h-2.177v-.826h2.177V-9.574h.826v2.279h2.177v.826Zm9.873-1.076h-.867A1.343,1.343,0,0,0-2.875-8.3a1.353,1.353,0,0,0-.905-.3A1.356,1.356,0,0,0-4.9-8.062a2.236,2.236,0,0,0-.423,1.43,2.22,2.22,0,0,0,.426,1.438,1.376,1.376,0,0,0,1.124.525,1.412,1.412,0,0,0,.885-.268,1.3,1.3,0,0,0,.467-.752h.872a1.935,1.935,0,0,1-.716,1.3,2.311,2.311,0,0,1-1.512.5,2.285,2.285,0,0,1-1.78-.737,2.876,2.876,0,0,1-.668-2.007,2.884,2.884,0,0,1,.668-2,2.258,2.258,0,0,1,1.77-.747,2.216,2.216,0,0,1,1.543.535A2.025,2.025,0,0,1-1.556-7.545ZM-.684-3.98v-7.358H.2V-3.98Zm2.132,0v-5.3h.887v5.3Zm.444-6.2a.529.529,0,0,1-.388-.163.529.529,0,0,1-.163-.388.527.527,0,0,1,.163-.39.534.534,0,0,1,.388-.161.54.54,0,0,1,.393.161.527.527,0,0,1,.163.39.529.529,0,0,1-.163.388A.535.535,0,0,1,1.891-10.176ZM5.659-8.605a1.352,1.352,0,0,0-1.022.426,1.678,1.678,0,0,0-.446,1.094H7.072a1.617,1.617,0,0,0-.4-1.1A1.305,1.305,0,0,0,5.659-8.605ZM7.051-5.5h.872a1.762,1.762,0,0,1-.732,1.158,2.416,2.416,0,0,1-1.476.454,2.272,2.272,0,0,1-1.79-.734,2.885,2.885,0,0,1-.653-1.989,2.961,2.961,0,0,1,.655-2,2.191,2.191,0,0,1,1.747-.76,2.123,2.123,0,0,1,1.693.719A2.844,2.844,0,0,1,7.99-6.729v.337h-3.8v.051A1.747,1.747,0,0,0,4.6-5.117a1.456,1.456,0,0,0,1.132.459,1.525,1.525,0,0,0,.852-.229A1.076,1.076,0,0,0,7.051-5.5ZM8.882-3.98v-5.3h.836v.847h.02a1.664,1.664,0,0,1,.658-.691,2.016,2.016,0,0,1,1.025-.247,1.751,1.751,0,0,1,1.351.523,2.022,2.022,0,0,1,.484,1.43V-3.98H12.37V-7.264a1.426,1.426,0,0,0-.306-.987,1.167,1.167,0,0,0-.913-.339,1.3,1.3,0,0,0-1,.408A1.529,1.529,0,0,0,9.769-7.1V-3.98Zm5.788-6.583h.887v1.28h1.03v.729h-1.03V-5.4a.765.765,0,0,0,.158.533.651.651,0,0,0,.5.171,2.271,2.271,0,0,0,.367-.025v.745a2.722,2.722,0,0,1-.561.041,1.392,1.392,0,0,1-1.04-.326,1.556,1.556,0,0,1-.311-1.091v-3.2h-.79v-.729h.79ZM17.439-7.82a1.363,1.363,0,0,1,.553-1.119,2.234,2.234,0,0,1,1.425-.436,2.112,2.112,0,0,1,1.367.439,1.457,1.457,0,0,1,.576,1.112h-.847a.842.842,0,0,0-.344-.607,1.29,1.29,0,0,0-.783-.219,1.29,1.29,0,0,0-.78.217.673.673,0,0,0-.3.569q0,.541.882.765l.821.2a2.5,2.5,0,0,1,1.13.528,1.22,1.22,0,0,1,.329.91,1.356,1.356,0,0,1-.592,1.135,2.475,2.475,0,0,1-1.52.441,2.287,2.287,0,0,1-1.43-.431,1.576,1.576,0,0,1-.635-1.14h.887q.148.847,1.234.847a1.5,1.5,0,0,0,.849-.212A.659.659,0,0,0,20.58-5.4a.582.582,0,0,0-.186-.454,1.548,1.548,0,0,0-.63-.286l-.933-.24Q17.439-6.734,17.439-7.82Z" transform="translate(69.487 28.325)" fill="#fff" opacity="0.5"/>
      <g id="Group_45719" data-name="Group 45719" transform="translate(53.02 2.177)">
        <path id="Polygon_9" data-name="Polygon 9" d="M3.264,0l.77,2.244H6.527L4.51,3.631l.77,2.244L3.264,4.488,1.247,5.875l.77-2.244L0,2.244H2.493Z" fill="#ffb300"/>
        <path id="Polygon_10" data-name="Polygon 10" d="M3.264,0l.77,2.244H6.527L4.51,3.631l.77,2.244L3.264,4.488,1.247,5.875l.77-2.244L0,2.244H2.493Z" transform="translate(7.18)" fill="#ffb300"/>
        <path id="Polygon_11" data-name="Polygon 11" d="M3.264,0l.77,2.244H6.527L4.51,3.631l.77,2.244L3.264,4.488,1.247,5.875l.77-2.244L0,2.244H2.493Z" transform="translate(14.36)" fill="#ffb300"/>
        <path id="Polygon_12" data-name="Polygon 12" d="M3.264,0l.77,2.244H6.527L4.51,3.631l.77,2.244L3.264,4.488,1.247,5.875l.77-2.244L0,2.244H2.493Z" transform="translate(21.54)" fill="#ffb300"/>
        <path id="Polygon_13" data-name="Polygon 13" d="M2.937,0l.693,2.244H5.875L4.059,3.631l.693,2.244L2.937,4.488,1.122,5.875l.693-2.244L0,2.244H2.244Z" transform="translate(29.373)" fill="#ffb300"/>
      </g>
    </g>
    <g id="Group_45731" data-name="Group 45731" transform="translate(537.515 5320)">
      <path id="Path_3110" data-name="Path 3110" d="M14.713,25.895a9.271,9.271,0,0,0,6.254-3.14c.361-.393.567-.509.993,0,.754.864,1.6,1.657,2.418,2.463.2.193.258.316,0,.554a14.009,14.009,0,0,1-11.837,4.642A13.584,13.584,0,0,1,.214,18.9,15.35,15.35,0,0,1,2.3,7.656,12.952,12.952,0,0,1,12.612,1.434a13.932,13.932,0,0,1,11.734,4.59c.251.271.226.393,0,.645-.857.825-1.715,1.657-2.527,2.527-.316.342-.477.264-.754,0a10.045,10.045,0,0,0-5.158-3A9.071,9.071,0,0,0,5.126,12.265a11.128,11.128,0,0,0,.709,8.929C7.48,24.263,10.349,25.895,14.713,25.895Z" transform="translate(0.088 -0.48)" fill="#fff"/>
      <path id="Path_3111" data-name="Path 3111" d="M141.923,10.9a8.568,8.568,0,0,1,3.365-1.425c4.145-.748,8.381,1.154,9.29,6.273a13.02,13.02,0,0,1,.213,2.347v10.96c0,.458-.129.587-.574.58q-1.7-.052-3.4,0c-.49,0-.645-.1-.645-.645V18.169a7.5,7.5,0,0,0-.181-1.657,3.161,3.161,0,0,0-3.958-2.579,4.37,4.37,0,0,0-4.087,4.6c-.052,1.934,0,3.868,0,5.8v4.777c0,.413-.155.516-.542.5h-3.52c-.432,0-.561-.129-.561-.554V.524c0-.387.142-.484.5-.484,1.173,0,2.347.032,3.514,0,.477,0,.645.116.645.606-.032,3.03-.032,6.06-.045,9.09Z" transform="translate(-48.733 -0.008)" fill="#fff"/>
      <path id="Path_3112" data-name="Path 3112" d="M68.894,33.752a8.684,8.684,0,0,1-4.855,1.56,7.438,7.438,0,0,1-7.827-6.628A13.686,13.686,0,0,1,56,26.447V15.558c0-.445.129-.542.542-.529,1.115,0,2.237.039,3.346,0,.567,0,.754.116.748.722-.032,3.552,0,7.092,0,10.657a5.8,5.8,0,0,0,.522,2.727,2.8,2.8,0,0,0,2.579,1.605,5.512,5.512,0,0,0,2.8-.561A4.354,4.354,0,0,0,68.888,26c.039-3.436,0-6.873,0-10.315,0-.535.129-.683.645-.645,1.154.045,2.308.032,3.462,0,.387,0,.49.122.49.5v18.9c0,.4-.129.529-.529.516h-3.4c-.49,0-.774-.084-.645-.645A2.746,2.746,0,0,0,68.894,33.752Z" transform="translate(-19.84 -5.333)" fill="#fff"/>
      <path id="Path_3113" data-name="Path 3113" d="M105.49,23.736A9.526,9.526,0,0,1,111.4,15.31a11.044,11.044,0,0,1,12.114,2.25c.187.193.213.309,0,.509-.915.9-1.831,1.805-2.727,2.727-.316.329-.477.052-.645-.116a6.144,6.144,0,0,0-4.687-1.689,5.551,5.551,0,0,0-5.364,6.447,5.345,5.345,0,0,0,3.823,4.784,5.8,5.8,0,0,0,6.131-1.386c.393-.38.6-.335.948.032.806.845,1.663,1.65,2.5,2.463.193.187.329.3.052.58a10.87,10.87,0,0,1-14.074,1.109C106.96,31.144,105.49,28.094,105.49,23.736Z" transform="translate(-37.423 -5.111)" fill="#fff"/>
      <path id="Path_3114" data-name="Path 3114" d="M94.18,23.417v7.2c0,.5-.148.612-.645.6-1.135-.032-2.269-.039-3.4,0-.5,0-.593-.155-.587-.645V16.286c0-.606-.168-.754-.741-.716-.709.052-1.418,0-2.134,0-.29,0-.406-.071-.4-.38V11.67c0-.355.142-.406.445-.4h2.308c.413,0,.516-.142.509-.535V5.088c0-.432.11-.561.542-.548h3.514c.426,0,.554.1.548.542v5.59c0,.5.155.612.645.6.922-.032,1.85,0,2.772,0,.309,0,.445.071.438.413v3.4c0,.426-.155.509-.535.5H94.741c-.509,0-.593.168-.587.645C94.193,18.613,94.18,21.018,94.18,23.417Z" transform="translate(-30.595 -1.606)" fill="#fff"/>
      <path id="Path_3115" data-name="Path 3115" d="M47.352,14.825V29.1c0,.348,0,.5-.451.49-1.167-.032-2.34-.032-3.514,0-.451,0-.587-.122-.587-.58V.635c0-.5.11-.645.645-.645,1.1.058,2.218.052,3.352.006.509,0,.593.155.587.645C47.345,5.354,47.352,10.093,47.352,14.825Z" transform="translate(-15.15 0.01)" fill="#fff"/>
      <path id="Path_3116" data-name="Path 3116" d="M116,28.55a3.4,3.4,0,0,1,3.436-3.41A3.428,3.428,0,1,1,116,28.55Z" transform="translate(-41.158 -8.926)" fill="#eb274b"/>
    </g>
  </g>
</svg>
